<svg xmlns="http://www.w3.org/2000/svg" style="display: none;"><symbol id="code" viewBox="0 0 512 512"><title>code</title><path style="fill:#87CED9;" d="M418.133,8.533H93.867c-18.85,0-34.133,15.283-34.133,34.133v204.8h392.533v-204.8 C452.267,23.817,436.983,8.533,418.133,8.533z"/><path style="fill:#7DC6D1;" d="M418.133,8.533h-45.508L133.692,247.467h318.575v-204.8C452.267,23.817,436.983,8.533,418.133,8.533z "/><g> <polygon style="fill:#4398D1;" points="304.759,358.4 290.133,307.2 221.867,307.2 207.241,358.4 170.667,358.4 170.667,375.467 341.333,375.467 341.333,358.4 "/> <path style="fill:#4398D1;" d="M59.733,273.067c0,18.85,15.283,34.133,34.133,34.133h324.267c18.85,0,34.133-15.283,34.133-34.133 v-25.6H59.733V273.067z"/> <rect x="85.333" y="401.067" style="fill:#4398D1;" width="238.933" height="102.4"/> <path style="fill:#4398D1;" d="M392.533,401.067L392.533,401.067c18.85,0,34.133,15.283,34.133,34.133v34.133 c0,18.85-15.283,34.133-34.133,34.133l0,0c-18.85,0-34.133-15.283-34.133-34.133V435.2 C358.4,416.35,373.683,401.067,392.533,401.067z"/> </g><g> <rect x="110.933" y="460.8" style="fill:#3B86B8;" width="17.067" height="17.067"/> <rect x="110.933" y="426.667" style="fill:#3B86B8;" width="17.067" height="17.067"/> <rect x="145.067" y="426.667" style="fill:#3B86B8;" width="17.067" height="17.067"/> <rect x="179.2" y="426.667" style="fill:#3B86B8;" width="17.067" height="17.067"/> <rect x="247.467" y="426.667" style="fill:#3B86B8;" width="17.067" height="17.067"/> <rect x="213.333" y="426.667" style="fill:#3B86B8;" width="17.067" height="17.067"/> <rect x="281.6" y="460.8" style="fill:#3B86B8;" width="17.067" height="17.067"/> <rect x="281.6" y="426.667" style="fill:#3B86B8;" width="17.067" height="17.067"/> <rect x="145.067" y="460.8" style="fill:#3B86B8;" width="119.467" height="17.067"/> <rect x="384" y="426.667" style="fill:#3B86B8;" width="17.067" height="17.067"/> </g><g> <rect x="193.865" y="128.156" transform="matrix(-0.2751 0.9614 -0.9614 -0.2751 457.7883 -71.798)" style="fill:#3077A6;" width="124.192" height="17.058"/> <path style="fill:#3077A6;" d="M199.339,185.754l-51.2-42.667c-3.618-3.021-4.105-8.397-1.092-12.015 c0.333-0.393,0.691-0.759,1.092-1.092l51.2-42.667l10.923,13.107l-43.332,36.113l43.332,36.113L199.339,185.754z"/> <path style="fill:#3077A6;" d="M312.661,185.754l-10.923-13.107l43.332-36.113l-43.332-36.113l10.923-13.107l51.2,42.667 c3.618,3.021,4.105,8.397,1.092,12.015c-0.333,0.393-0.691,0.759-1.092,1.092L312.661,185.754z"/> </g><polygon style="fill:#3B86B8;" points="295.006,324.267 290.133,307.2 221.867,307.2 216.994,324.267 "/><path d="M460.8,273.067v-230.4C460.774,19.115,441.685,0.026,418.133,0H93.867C70.315,0.026,51.226,19.115,51.2,42.667v230.4 c0.026,23.552,19.115,42.641,42.667,42.667h116.685L198.366,358.4h-27.699v17.067h170.667V358.4h-27.699l-12.186-42.667h116.685 C441.685,315.708,460.774,296.619,460.8,273.067z M93.867,17.067h324.267c14.14,0,25.6,11.46,25.6,25.6v196.267H68.267V42.667 C68.267,28.527,79.727,17.067,93.867,17.067z M295.885,358.4h-79.77l12.186-42.667h55.398L295.885,358.4z M418.133,298.667H93.867 c-14.14,0-25.6-11.46-25.6-25.6V256h375.467v17.067C443.733,287.206,432.273,298.667,418.133,298.667z"/><path d="M85.333,392.533c-4.71,0-8.533,3.823-8.533,8.533v102.4c0,4.71,3.823,8.533,8.533,8.533h238.933 c4.71,0,8.533-3.823,8.533-8.533v-102.4c0-4.71-3.823-8.533-8.533-8.533H85.333z M315.733,494.933H93.867V409.6h221.867V494.933z"/><rect x="110.933" y="460.8" width="17.067" height="17.067"/><rect x="110.933" y="426.667" width="17.067" height="17.067"/><rect x="145.067" y="426.667" width="17.067" height="17.067"/><rect x="179.2" y="426.667" width="17.067" height="17.067"/><rect x="247.467" y="426.667" width="17.067" height="17.067"/><rect x="213.333" y="426.667" width="17.067" height="17.067"/><rect x="281.6" y="460.8" width="17.067" height="17.067"/><rect x="281.6" y="426.667" width="17.067" height="17.067"/><rect x="145.067" y="460.8" width="119.467" height="17.067"/><path d="M349.867,435.2v34.133c0,23.561,19.106,42.667,42.667,42.667s42.667-19.106,42.667-42.667V435.2 c0-23.561-19.106-42.667-42.667-42.667S349.867,411.639,349.867,435.2z M418.133,435.2v34.133c0,14.14-11.46,25.6-25.6,25.6 s-25.6-11.46-25.6-25.6V435.2c0-14.14,11.46-25.6,25.6-25.6S418.133,421.06,418.133,435.2z"/><rect x="384" y="426.667" width="17.067" height="17.067"/><rect x="193.865" y="128.156" transform="matrix(-0.2751 0.9614 -0.9614 -0.2751 457.7883 -71.798)" width="124.192" height="17.058"/><path d="M199.339,185.754l10.923-13.107l-43.332-36.113l43.332-36.113l-10.923-13.107l-51.2,42.667 c-3.618,3.021-4.105,8.397-1.092,12.015c0.333,0.393,0.691,0.759,1.092,1.092L199.339,185.754z"/><path d="M312.661,185.754l51.2-42.667c3.618-3.021,4.105-8.397,1.092-12.015c-0.333-0.393-0.691-0.759-1.092-1.092l-51.2-42.667 l-10.923,13.107l43.332,36.113l-43.332,36.113L312.661,185.754z"/></symbol><symbol id="server" viewBox="0 0 60 60"><title>server</title><g> <path style="fill:#424A60;" d="M24,35v-0.375V34.25v-8.625V25.25h0.034C24.013,25.374,24,25.499,24,25.625 c0-2.437,3.862-4.552,9.534-5.625H3.608C1.616,20,0,21.615,0,23.608v11.783C0,37.385,1.616,39,3.608,39H24V35z"/> </g><g> <path style="fill:#556080;" d="M24.034,53H24v-9v-0.375V43.25V39H3.608C1.616,39,0,40.615,0,42.608v11.783 C0,56.385,1.616,58,3.608,58h28.718C27.601,56.931,24.378,55.103,24.034,53z"/> </g><path style="fill:#556080;" d="M54.392,20H3.608C1.616,20,0,18.384,0,16.392V4.608C0,2.616,1.616,1,3.608,1h50.783 C56.384,1,58,2.616,58,4.608v11.783C58,18.384,56.384,20,54.392,20z"/><circle style="fill:#7383BF;" cx="9.5" cy="10.5" r="3.5"/><circle style="fill:#7383BF;" cx="49" cy="9" r="1"/><circle style="fill:#7383BF;" cx="45" cy="9" r="1"/><circle style="fill:#7383BF;" cx="51" cy="12" r="1"/><circle style="fill:#7383BF;" cx="47" cy="12" r="1"/><circle style="fill:#7383BF;" cx="41" cy="9" r="1"/><circle style="fill:#7383BF;" cx="43" cy="12" r="1"/><circle style="fill:#7383BF;" cx="37" cy="9" r="1"/><circle style="fill:#7383BF;" cx="39" cy="12" r="1"/><circle style="fill:#7383BF;" cx="33" cy="9" r="1"/><circle style="fill:#7383BF;" cx="35" cy="12" r="1"/><circle style="fill:#7383BF;" cx="9.5" cy="29.5" r="3.5"/><circle style="fill:#7383BF;" cx="9.5" cy="48.5" r="3.5"/><g> <path style="fill:#1A9172;" d="M42,48.75c-9.941,0-18-2.854-18-6.375V53h0.034c0.548,3.346,8.381,6,17.966,6s17.418-2.654,17.966-6 H60V42.375C60,45.896,51.941,48.75,42,48.75z"/> <path style="fill:#1A9172;" d="M24,42v0.375c0-0.126,0.013-0.251,0.034-0.375H24z"/> <path style="fill:#1A9172;" d="M59.966,42C59.987,42.124,60,42.249,60,42.375V42H59.966z"/> </g><g> <path style="fill:#25AE88;" d="M42,38c-9.941,0-18-2.854-18-6.375V42.75h0.034c0.548,3.346,8.381,6,17.966,6s17.418-2.654,17.966-6 H60V31.625C60,35.146,51.941,38,42,38z"/> <path style="fill:#25AE88;" d="M24,31.25v0.375c0-0.126,0.013-0.251,0.034-0.375H24z"/> <path style="fill:#25AE88;" d="M59.966,31.25C59.987,31.374,60,31.499,60,31.625V31.25H59.966z"/> </g><ellipse style="fill:#88C057;" cx="42" cy="21.375" rx="18" ry="6.375"/><g> <path style="fill:#61B872;" d="M42,27.75c-9.941,0-18-2.854-18-6.375V32h0.034c0.548,3.346,8.381,6,17.966,6s17.418-2.654,17.966-6 H60V21.375C60,24.896,51.941,27.75,42,27.75z"/> <path style="fill:#61B872;" d="M24,21v0.375c0-0.126,0.013-0.251,0.034-0.375H24z"/> <path style="fill:#61B872;" d="M59.966,21C59.987,21.124,60,21.249,60,21.375V21H59.966z"/> </g></symbol><symbol id="robot" viewBox="0 0 471.477 471.477"><title>robot</title><path style="fill:#F9B310;" d="M181.464,233.738c-28.4,0-45.28-16.96-45.28-45.28v-65.6c0-28.4,16.96-45.28,45.28-45.28h108.72 c28.4,0,45.28,16.96,45.28,45.28v65.2c0,28.4-16.96,45.28-45.28,45.28L181.464,233.738z M281.544,113.258c-13.255,0-24,10.745-24,24 s10.745,24,24,24s24-10.745,24-24S294.799,113.258,281.544,113.258z M189.944,113.258c-13.255,0-24,10.745-24,24s10.745,24,24,24 s24-10.745,24-24c0-13.224-10.696-23.956-23.92-24H189.944z"/><g> <circle style="fill:#FFFFFF;" cx="190.024" cy="137.258" r="23.92"/> <circle style="fill:#FFFFFF;" cx="190.024" cy="137.258" r="15.92"/> </g><path style="fill:#F9B310;" d="M125.864,184.938c-19.352-5.605-30.496-25.836-24.892-45.188 c3.48-12.016,12.875-21.411,24.892-24.892l10.24-3.04v76.24L125.864,184.938z"/><g> <circle style="fill:#FFFFFF;" cx="281.544" cy="137.258" r="23.92"/> <circle style="fill:#FFFFFF;" cx="281.544" cy="137.258" r="15.92"/> </g><g> <path style="fill:#F9B310;" d="M335.464,112.138l10.24,2.72c19.352,5.605,30.496,25.836,24.892,45.188 c-3.48,12.016-12.875,21.411-24.892,24.892l-10.24,3.12V112.138z"/> <circle style="fill:#F9B310;" cx="235.784" cy="27.098" r="18.64"/> </g><g> <circle style="fill:#B1523E;" cx="88.824" cy="256.778" r="23.04"/> <path style="fill:#B1523E;" d="M139.784,262.218v105.28c0.011,11.65,2.153,23.201,6.32,34.08l2,5.12h175.68l2-5.12 c4.058-10.9,6.092-22.449,6-34.08v-105.28H139.784z"/> <circle style="fill:#B1523E;" cx="382.744" cy="256.778" r="23.04"/> </g><path style="fill:#F9B310;" d="M235.784,463.578c-32.875-0.023-63.452-16.866-81.04-44.64l-8-12.32h177.92l-8,12.32 C299.106,446.664,268.602,463.5,235.784,463.578L235.784,463.578z"/><g> <path style="fill:#58171D;" d="M190.024,169.178c17.673,0,32-14.327,32-32s-14.327-32-32-32s-32,14.327-32,32 S172.351,169.178,190.024,169.178z M190.024,121.178c8.837,0,16,7.163,16,16s-7.163,16-16,16s-16-7.163-16-16 c0.044-8.805,7.195-15.92,16-15.92V121.178z"/> <path style="fill:#58171D;" d="M281.544,169.178c17.673,0,32-14.327,32-32s-14.327-32-32-32s-32,14.327-32,32 S263.871,169.178,281.544,169.178z M281.544,121.178c8.837,0,16,7.163,16,16s-7.163,16-16,16s-16-7.163-16-16 c0.044-8.805,7.195-15.92,16-15.92V121.178z"/> <path style="fill:#58171D;" d="M128.344,193.818c2.4,35.12,28.48,48,53.04,48h108.8c36.56,0,51.2-24,53.04-48 c24.213-4.401,40.274-27.598,35.872-51.811c-3.452-18.993-18.742-33.603-37.872-36.189c-5.28-19.52-20.48-36.16-51.04-36.16h-46.4 v-17.6c14.034-4.418,21.829-19.377,17.41-33.41s-19.377-21.829-33.41-17.41s-21.829,19.377-17.41,33.41 c2.613,8.298,9.112,14.798,17.41,17.41v17.2h-46.32c-21.6,0-44.32,9.92-51.2,36.16c-24.381,3.347-41.433,25.825-38.086,50.206 c2.624,19.117,17.255,34.372,36.246,37.794L128.344,193.818z M363.784,149.898c-0.036,12.693-8.444,23.84-20.64,27.36v-54.72 C355.34,126.058,363.748,137.204,363.784,149.898z M225.144,27.098c0-5.876,4.764-10.64,10.64-10.64s10.64,4.764,10.64,10.64 s-4.764,10.64-10.64,10.64l0,0C229.908,37.738,225.144,32.974,225.144,27.098z M144.104,123.098c0-32.48,23.36-37.28,37.28-37.28 h108.8c32.48,0,37.28,23.36,37.28,37.28v64.96c0,13.92-4.88,37.28-37.28,37.28h-108.72c-13.92,0-37.28-4.88-37.28-37.28 L144.104,123.098z M128.104,123.098v54.72c-15.111-4.368-23.819-20.158-19.452-35.268 C111.367,133.156,118.711,125.813,128.104,123.098z"/> <path style="fill:#58171D;" d="M281.544,190.938h-91.52c-4.418,0-8,3.582-8,8s3.582,8,8,8h91.52c4.418,0,8-3.582,8-8 S285.962,190.938,281.544,190.938z"/> <path style="fill:#58171D;" d="M413.784,256.778c-0.153-17.142-14.173-30.915-31.315-30.762 c-14.344,0.128-26.732,10.067-29.965,24.042l-21.36,4.16h-190.72l-21.36-4.16c-3.66-16.748-20.203-27.358-36.951-23.698 s-27.358,20.203-23.698,36.951c2.488,11.384,11.142,20.416,22.409,23.388v59.76c-13.533,3.61-22.972,15.834-23.04,29.84v14.16 c0,4.418,3.582,8,8,8s8-3.582,8-8v-14.24c0-8.306,6.734-15.04,15.04-15.04s15.04,6.734,15.04,15.04l0,0v14.24c0,4.418,3.582,8,8,8 c4.418,0,8-3.582,8-8v-14.24c-0.068-14.006-9.507-26.23-23.04-29.84v-59.76c10.163-2.738,18.239-10.453,21.44-20.48l13.36,2.64 v98.72c0.016,14.473,3.068,28.781,8.96,42v0.72c23.619,52.357,85.21,75.653,137.566,52.034 c23.106-10.424,41.61-28.927,52.034-52.034l0.4-0.88c5.955-13.151,9.089-27.404,9.2-41.84v-98.72l13.36-2.64 c3.201,10.027,11.277,17.742,21.44,20.48v59.76c-13.533,3.61-22.972,15.834-23.04,29.84v14.24c0,4.418,3.582,8,8,8s8-3.582,8-8 v-14.24c0.008-8.306,6.748-15.034,15.054-15.026c8.295,0.008,15.018,6.731,15.026,15.026v14.24c0,4.418,3.582,8,8,8s8-3.582,8-8 v-14.24c-0.068-14.006-9.507-26.23-23.04-29.84v-59.76C404.18,283.069,413.696,270.829,413.784,256.778L413.784,256.778z M88.824,271.818c-8.306,0-15.04-6.734-15.04-15.04c0-8.306,6.734-15.04,15.04-15.04s15.04,6.734,15.04,15.04 C103.864,265.084,97.13,271.818,88.824,271.818L88.824,271.818z M235.784,455.578c-30.139-0.001-58.182-15.425-74.32-40.88h148.64 C293.966,440.152,265.923,455.577,235.784,455.578z M323.784,367.578c-0.039,10.668-2.018,21.24-5.84,31.2h-164.48 c-3.822-9.96-5.801-20.532-5.84-31.2v-97.36h176.16V367.578z M382.584,271.578c-8.306,0-15.04-6.734-15.04-15.04 c0-8.306,6.734-15.04,15.04-15.04c8.306,0,15.04,6.734,15.04,15.04c0.133,8.305-6.492,15.146-14.797,15.279 c-0.028,0-0.055,0.001-0.083,0.001L382.584,271.578z"/> </g><path style="fill:#FFFFFF;" d="M210.744,385.738c3.272,2.952,8.316,2.702,11.28-0.56l42.64-47.2c2.96-3.28,2.701-8.339-0.579-11.299 c-1.465-1.322-3.367-2.056-5.341-2.061h-24l29.44-30.24c2.83-3.393,2.375-8.437-1.018-11.268c-3.034-2.531-7.461-2.468-10.422,0.148 l-42.64,43.84c-3.093,3.155-3.042,8.22,0.113,11.313c1.507,1.477,3.537,2.299,5.647,2.287h24.64l-30.32,33.76 C207.232,377.73,207.482,382.774,210.744,385.738L210.744,385.738z"/></symbol><symbol id="target" viewBox="0 0 414.295 414.295"><title>target</title><path style="fill:#FFE05F;" d="M180.804,406.211C85.59,406.306,8.326,329.198,8.231,233.984 C8.135,138.77,85.244,61.507,180.458,61.411c39.416-0.04,77.654,13.428,108.346,38.16l2.88,2.32l0.72,20.4l20.32,0.72l2.32,2.88 c59.691,74.067,48.037,182.498-26.029,242.189C258.362,392.784,220.172,406.241,180.804,406.211z M180.804,132.531 c-56.112-0.188-101.752,45.147-101.94,101.259c-0.188,56.112,45.147,101.752,101.259,101.94s101.752-45.147,101.94-101.259 c0.082-24.497-8.689-48.198-24.699-66.74l-4.88-5.6l-5.6-4.88C228.539,141.345,205.084,132.57,180.804,132.531L180.804,132.531z"/><path style="fill:#FFA757;" d="M180.804,265.891c-17.673,0-32-14.327-32-32s14.327-32,32-32c4.768,0.028,9.469,1.122,13.76,3.2 l10.16,4.88l4.88,10.16c2.078,4.291,3.172,8.992,3.2,13.76C212.804,251.564,198.477,265.891,180.804,265.891L180.804,265.891z"/><path style="fill:#FFFFFF;" d="M180.804,335.171C124.868,335.256,79.455,289.98,79.37,234.045 c-0.085-55.935,45.191-101.349,101.126-101.434c23.941-0.036,47.122,8.41,65.428,23.84l6.64,5.6l5.6,6.64 c36.053,42.708,30.658,106.557-12.05,142.61C227.846,326.722,204.71,335.178,180.804,335.171L180.804,335.171z M180.804,201.891 c-17.673-0.018-32.014,14.294-32.032,31.968s14.294,32.014,31.968,32.032s32.014-14.294,32.032-31.968 c0.006-6.3-1.847-12.461-5.328-17.712l-3.6-5.44l-5.44-3.6c-5.215-3.471-11.335-5.335-17.6-5.36L180.804,201.891z"/><path style="fill:#FFA757;" d="M292.324,122.291l-1.52-45.04l69.12-69.12l1.52,45.04l45.04,1.52l-69.12,69.12L292.324,122.291z"/><path style="fill:#3F342B;" d="M406.804,46.691l-37.6-1.28l-1.28-37.6c-0.149-4.416-3.849-7.875-8.265-7.726 c-2.041,0.069-3.979,0.915-5.415,2.366l-69.04,68.72c-1.558,1.568-2.398,3.711-2.32,5.92v8 C200.799,28.544,88.417,49.247,31.87,131.331S-3.975,325.798,78.11,382.345s194.467,35.844,251.014-46.24 c42.471-61.651,42.471-143.122,0-204.774h8c2.126,0.012,4.17-0.823,5.68-2.32l69.12-69.12c3.139-3.109,3.164-8.174,0.055-11.314 c-1.437-1.451-3.374-2.298-5.415-2.366L406.804,46.691z M345.204,233.811c0.12,90.928-73.495,164.737-164.423,164.857 c-90.928,0.12-164.737-73.495-164.857-164.423c-0.12-90.928,73.495-164.737,164.423-164.857 c37.649-0.05,74.177,12.806,103.497,36.423l0.4,13.36l-32,32c-45.521-39.897-114.766-35.337-154.663,10.184 s-35.337,114.766,10.184,154.663s114.766,35.337,154.663-10.184c35.846-40.9,36.279-101.899,1.016-143.303l32-32l13.2,0.48 C332.172,160.12,345.068,196.383,345.204,233.811z M175.444,239.171c3.12,3.102,8.16,3.102,11.28,0l16-16 c1.559,3.218,2.379,6.744,2.4,10.32c0,13.255-10.745,24-24,24s-24-10.745-24-24s10.745-24,24-24c3.576,0.021,7.102,0.841,10.32,2.4 l-16,16C172.342,231.011,172.342,236.051,175.444,239.171L175.444,239.171z M203.124,200.131 c-18.422-12.192-43.24-7.142-55.432,11.28c-12.192,18.422-7.142,43.24,11.28,55.432c18.422,12.192,43.24,7.142,55.432-11.28 c8.858-13.385,8.858-30.768,0-44.152l37.92-37.92c33.243,39.472,28.192,98.419-11.28,131.662s-98.419,28.192-131.662-11.28 s-28.192-98.419,11.28-131.662c34.782-29.292,85.6-29.292,120.382,0L203.124,200.131z M334.484,115.331l-34.08-1.12l-1.12-34.08 l53.6-53.6l0.88,26.64c0,4.418,3.582,8,8,8l26.64,0.88L334.484,115.331z"/></symbol><symbol id="teacher" viewBox="0 -33 512 512"><title>teacher</title><path d="m444.5 7.5h-30v392.5h60v-362.5c0-16.5-13.5-30-30-30zm0 0" fill="#b3b3b3"/><path d="m414.5 7.5h-347c-16.5 0-30 13.5-30 30v362.5h407v-80l-60-120 60-162.5c0-16.5-13.5-30-30-30zm0 0" fill="#ccc"/><path d="m414.5 37.5-30 161.0625 30 118.9375h30v-280zm0 0" fill="#d5e3aa"/><path d="m67.5 37.5v280h128.5l60-29.734375 60 29.734375h98.5v-280zm0 0" fill="#fff"/><path d="m464.5 347.5h-30v60l70-30zm0 0" fill="#ccc"/><path d="m37.5 347.5-30 30 30 30h437v-30l-40-30zm0 0" fill="#ebebeb"/><path d="m474.5 377.5-30 60h30c16.5 0 30-13.5 30-30v-30zm0 0" fill="#b3b3b3"/><path d="m474.5 407.5v-30h-143.5l-75 15-75-15h-173.5v30c0 16.5 13.5 30 30 30h407c16.5 0 30-13.5 30-30zm0 0" fill="#ccc"/><path d="m181 377.5 15 30h120l15-30zm0 0" fill="#828282"/><path d="m286 197.5h-30l-10 60 10 60h30l15-60zm0 0" fill="#a8e5ff"/><path d="m226 197.5-15 60 15 60h30v-120zm0 0" fill="#dbf4ff"/><path d="m216 197.5c-11.046875 0-20 8.953125-20 20v100h30v-120zm0 0" fill="#696969"/><path d="m296 197.5h-10v120h30v-100c0-11.046875-8.953125-20-20-20zm0 0" fill="#4f4f4f"/><path d="m256 77.5v90c24.851562 0 45-20.148438 45-45s-20.148438-45-45-45zm0 0" fill="#85453d"/><path d="m271 122.5c0-24.851562-6.714844-45-15-45-24.851562 0-45 20.148438-45 45s20.148438 45 45 45c8.285156 0 15-20.148438 15-45zm0 0" fill="#a45e43"/><path d="m511.960938 376.75c-.015626-.179688-.046876-.359375-.078126-.535156-.011718-.0625-.019531-.128906-.03125-.191406-.039062-.210938-.09375-.417969-.152343-.621094-.011719-.027344-.015625-.058594-.023438-.089844-.0625-.207031-.140625-.410156-.21875-.609375-.011719-.023437-.019531-.054687-.03125-.078125-.078125-.191406-.167969-.371094-.261719-.554688-.015624-.035156-.03125-.074218-.050781-.109374-.089843-.167969-.191406-.328126-.292969-.488282-.03125-.046875-.054687-.097656-.085937-.144531-.101563-.148437-.214844-.292969-.324219-.4375-.039062-.050781-.074218-.101563-.113281-.152344-.15625-.1875-.320313-.371093-.492187-.542969l-27.804688-27.800781v-306.894531c0-20.679688-16.820312-37.5-37.5-37.5h-377c-20.679688 0-37.5 16.820312-37.5 37.5v306.894531l-27.800781 27.800781c-.175781.171876-.339844.355469-.496094.542969-.039063.050781-.070313.105469-.109375.152344-.113281.144531-.226562.289063-.324219.4375-.035156.046875-.058593.097656-.089843.144531-.101563.160156-.199219.320313-.289063.488282-.023437.035156-.035156.074218-.054687.109374-.09375.183594-.183594.367188-.261719.554688-.011719.027344-.019531.054688-.03125.078125-.078125.199219-.152344.402344-.21875.609375-.007813.03125-.011719.0625-.019531.089844-.0625.203125-.113282.410156-.15625.621094-.011719.0625-.019532.128906-.03125.191406-.0273442.175781-.0585942.355468-.0781255.535156-.0273437.25-.0390625.5-.0390625.75v30c0 20.679688 16.820312 37.5 37.5 37.5h437c20.679688 0 37.5-16.820312 37.5-37.5v-30c0-.25-.011719-.5-.039062-.75zm-25.566407-6.75h-460.789062l15-15h430.789062zm-167.53125 15-7.5 15h-110.726562l-7.5-15zm-251.363281-370h377c12.40625 0 22.5 10.09375 22.5 22.5v302.5h-422v-302.5c0-12.40625 10.09375-22.5 22.5-22.5zm407 415h-437c-12.40625 0-22.5-10.09375-22.5-22.5v-22.5h161.363281l12.929688 25.855469c1.269531 2.539062 3.867187 4.144531 6.707031 4.144531h120c2.839844 0 5.4375-1.605469 6.707031-4.144531l12.929688-25.855469h161.363281v22.5c0 12.40625-10.09375 22.5-22.5 22.5zm0 0"/><path d="m204.617188 101.496094 2.644531 1.523437c-2.417969 6.03125-3.761719 12.597657-3.761719 19.480469 0 28.949219 23.550781 52.5 52.5 52.5s52.5-23.550781 52.5-52.5c0-6.882812-1.34375-13.449219-3.761719-19.480469l2.644531-1.523437c3.585938-2.070313 4.8125-6.660156 2.742188-10.246094-2.070312-3.589844-6.65625-4.816406-10.242188-2.746094l-2.664062 1.539063c-2.566406-3.253907-5.507812-6.195313-8.761719-8.761719l1.535157-2.664062c2.074218-3.585938.84375-8.171876-2.742188-10.246094-3.589844-2.070313-8.175781-.839844-10.246094 2.746094l-1.527344 2.644531c-3.796874-1.523438-7.804687-2.617188-11.976562-3.21875v-3.042969c0-4.140625-3.359375-7.5-7.5-7.5-4.144531 0-7.5 3.359375-7.5 7.5v3.042969c-4.171875.601562-8.183594 1.695312-11.980469 3.21875l-1.527343-2.644531c-2.070313-3.585938-6.65625-4.8125-10.242188-2.742188-3.589844 2.070312-4.816406 6.65625-2.746094 10.242188l1.535156 2.664062c-3.25 2.566406-6.191406 5.507812-8.757812 8.761719l-2.664062-1.535157c-3.585938-2.074218-8.175782-.84375-10.246094 2.742188-2.070313 3.585938-.839844 8.175781 2.746094 10.246094zm51.382812 58.503906c-20.679688 0-37.5-16.820312-37.5-37.5s16.820312-37.5 37.5-37.5 37.5 16.820312 37.5 37.5-16.820312 37.5-37.5 37.5zm0 0"/><path d="m67.5 325h377c4.140625 0 7.5-3.359375 7.5-7.5v-280c0-4.140625-3.359375-7.5-7.5-7.5h-377c-4.140625 0-7.5 3.359375-7.5 7.5v280c0 4.140625 3.359375 7.5 7.5 7.5zm136-107.5c0-6.894531 5.605469-12.5 12.5-12.5h2.5v105h-15zm52.5 77.5c4.140625 0 7.5-3.359375 7.5-7.5v-82.5h15v105h-45v-105h15v82.5c0 4.140625 3.359375 7.5 7.5 7.5zm67.5-68.710938c8.730469 3.097657 15 11.433594 15 21.210938v62.5h-15zm-15 83.710938h-15v-105h2.5c6.894531 0 12.5 5.605469 12.5 12.5zm-233.5-265h362v265h-83.5v-62.5c0-18.417969-13.347656-33.765625-30.878906-36.902344-3.070313-11.832031-13.839844-20.597656-26.621094-20.597656h-80c-12.5625 0-23.179688 8.472656-26.453125 20h-53.546875c-4.136719 0-7.5-3.363281-7.5-7.5s3.363281-7.5 7.5-7.5h30c4.140625 0 7.5-3.359375 7.5-7.5v-35c0-4.140625-3.359375-7.5-7.5-7.5s-7.5 3.359375-7.5 7.5v27.5h-22.5c-12.40625 0-22.5 10.09375-22.5 22.5s10.09375 22.5 22.5 22.5h52.5v85h-113.5zm0 0"/></symbol></svg>